<mxfile host="app.diagrams.net" modified="2024-07-22T11:03:04.279Z" agent="Mozilla/5.0 (Windows NT 10.0; Win64; x64) AppleWebKit/537.36 (KHTML, like Gecko) Chrome/126.0.0.0 Safari/537.36" etag="JTQAMYOIuKHPd88jHCA2" version="24.7.1" type="device">
  <diagram name="Page-1" id="OhA6lSKEhTAAbP44LwhL">
    <mxGraphModel dx="1500" dy="1970" grid="1" gridSize="10" guides="1" tooltips="1" connect="1" arrows="1" fold="1" page="1" pageScale="1" pageWidth="850" pageHeight="1100" math="0" shadow="0">
      <root>
        <mxCell id="0" />
        <mxCell id="1" parent="0" />
        <mxCell id="sfTDWbWclrnO0eRWnQgi-31" style="edgeStyle=orthogonalEdgeStyle;rounded=0;orthogonalLoop=1;jettySize=auto;html=1;exitX=0;exitY=1;exitDx=0;exitDy=0;entryX=0.5;entryY=0;entryDx=0;entryDy=0;" edge="1" parent="1" source="sfTDWbWclrnO0eRWnQgi-6" target="sfTDWbWclrnO0eRWnQgi-8">
          <mxGeometry relative="1" as="geometry" />
        </mxCell>
        <mxCell id="sfTDWbWclrnO0eRWnQgi-32" style="edgeStyle=orthogonalEdgeStyle;rounded=0;orthogonalLoop=1;jettySize=auto;html=1;exitX=1;exitY=1;exitDx=0;exitDy=0;entryX=0.5;entryY=0;entryDx=0;entryDy=0;" edge="1" parent="1" source="sfTDWbWclrnO0eRWnQgi-6" target="sfTDWbWclrnO0eRWnQgi-10">
          <mxGeometry relative="1" as="geometry" />
        </mxCell>
        <mxCell id="sfTDWbWclrnO0eRWnQgi-33" style="edgeStyle=orthogonalEdgeStyle;rounded=0;orthogonalLoop=1;jettySize=auto;html=1;exitX=1;exitY=0.5;exitDx=0;exitDy=0;entryX=0.5;entryY=0;entryDx=0;entryDy=0;" edge="1" parent="1" source="sfTDWbWclrnO0eRWnQgi-6" target="sfTDWbWclrnO0eRWnQgi-12">
          <mxGeometry relative="1" as="geometry">
            <Array as="points">
              <mxPoint x="180" y="470" />
              <mxPoint x="300" y="470" />
            </Array>
          </mxGeometry>
        </mxCell>
        <mxCell id="sfTDWbWclrnO0eRWnQgi-6" value="PAYMENT" style="rhombus;whiteSpace=wrap;html=1;fillColor=#ffe6cc;strokeColor=#d79b00;" vertex="1" parent="1">
          <mxGeometry x="60" y="420" width="120" height="110" as="geometry" />
        </mxCell>
        <mxCell id="sfTDWbWclrnO0eRWnQgi-27" style="edgeStyle=orthogonalEdgeStyle;rounded=0;orthogonalLoop=1;jettySize=auto;html=1;exitX=0;exitY=0.5;exitDx=0;exitDy=0;entryX=0.5;entryY=0;entryDx=0;entryDy=0;" edge="1" parent="1" source="sfTDWbWclrnO0eRWnQgi-7" target="sfTDWbWclrnO0eRWnQgi-14">
          <mxGeometry relative="1" as="geometry" />
        </mxCell>
        <mxCell id="sfTDWbWclrnO0eRWnQgi-28" style="edgeStyle=orthogonalEdgeStyle;rounded=0;orthogonalLoop=1;jettySize=auto;html=1;exitX=0;exitY=1;exitDx=0;exitDy=0;" edge="1" parent="1" source="sfTDWbWclrnO0eRWnQgi-7" target="sfTDWbWclrnO0eRWnQgi-15">
          <mxGeometry relative="1" as="geometry" />
        </mxCell>
        <mxCell id="sfTDWbWclrnO0eRWnQgi-7" value="&lt;h2&gt;ORDER&lt;/h2&gt;" style="rhombus;whiteSpace=wrap;html=1;fillColor=#ffe6cc;strokeColor=#d79b00;" vertex="1" parent="1">
          <mxGeometry x="680" y="390" width="110" height="120" as="geometry" />
        </mxCell>
        <mxCell id="sfTDWbWclrnO0eRWnQgi-8" value="GATEWAY" style="ellipse;whiteSpace=wrap;html=1;fillColor=#fff2cc;strokeColor=#d6b656;" vertex="1" parent="1">
          <mxGeometry x="30" y="620" width="110" height="100" as="geometry" />
        </mxCell>
        <mxCell id="sfTDWbWclrnO0eRWnQgi-10" value="MESSAGE&amp;nbsp;" style="ellipse;whiteSpace=wrap;html=1;fillColor=#fff2cc;strokeColor=#d6b656;" vertex="1" parent="1">
          <mxGeometry x="180" y="620" width="110" height="100" as="geometry" />
        </mxCell>
        <mxCell id="sfTDWbWclrnO0eRWnQgi-12" value="MODE OF PAYMENT" style="ellipse;whiteSpace=wrap;html=1;fillColor=#fff2cc;strokeColor=#d6b656;" vertex="1" parent="1">
          <mxGeometry x="250" y="490" width="100" height="90" as="geometry" />
        </mxCell>
        <mxCell id="sfTDWbWclrnO0eRWnQgi-14" value="HISTORY" style="ellipse;whiteSpace=wrap;html=1;fillColor=#fff2cc;strokeColor=#d6b656;" vertex="1" parent="1">
          <mxGeometry x="480" y="490" width="100" height="90" as="geometry" />
        </mxCell>
        <mxCell id="sfTDWbWclrnO0eRWnQgi-15" value="WISHLIST" style="ellipse;whiteSpace=wrap;html=1;fillColor=#fff2cc;strokeColor=#d6b656;" vertex="1" parent="1">
          <mxGeometry x="540" y="610" width="120" height="90" as="geometry" />
        </mxCell>
        <mxCell id="sfTDWbWclrnO0eRWnQgi-17" value="CART" style="ellipse;whiteSpace=wrap;html=1;fillColor=#fff2cc;strokeColor=#d6b656;" vertex="1" parent="1">
          <mxGeometry x="700" y="610" width="120" height="90" as="geometry" />
        </mxCell>
        <mxCell id="sfTDWbWclrnO0eRWnQgi-37" style="edgeStyle=orthogonalEdgeStyle;rounded=0;orthogonalLoop=1;jettySize=auto;html=1;exitX=0.5;exitY=0;exitDx=0;exitDy=0;entryX=1;entryY=1;entryDx=0;entryDy=0;" edge="1" parent="1" source="sfTDWbWclrnO0eRWnQgi-18" target="sfTDWbWclrnO0eRWnQgi-21">
          <mxGeometry relative="1" as="geometry" />
        </mxCell>
        <mxCell id="sfTDWbWclrnO0eRWnQgi-18" value="&lt;h2&gt;PRODUCT&lt;/h2&gt;" style="rhombus;whiteSpace=wrap;html=1;fillColor=#ffe6cc;strokeColor=#d79b00;" vertex="1" parent="1">
          <mxGeometry x="50" y="90" width="120" height="120" as="geometry" />
        </mxCell>
        <mxCell id="sfTDWbWclrnO0eRWnQgi-40" style="edgeStyle=orthogonalEdgeStyle;rounded=0;orthogonalLoop=1;jettySize=auto;html=1;exitX=0.5;exitY=0;exitDx=0;exitDy=0;entryX=1;entryY=1;entryDx=0;entryDy=0;" edge="1" parent="1" source="sfTDWbWclrnO0eRWnQgi-19" target="sfTDWbWclrnO0eRWnQgi-25">
          <mxGeometry relative="1" as="geometry" />
        </mxCell>
        <mxCell id="sfTDWbWclrnO0eRWnQgi-42" style="edgeStyle=orthogonalEdgeStyle;rounded=0;orthogonalLoop=1;jettySize=auto;html=1;exitX=1;exitY=0;exitDx=0;exitDy=0;entryX=0.5;entryY=1;entryDx=0;entryDy=0;" edge="1" parent="1" source="sfTDWbWclrnO0eRWnQgi-19" target="sfTDWbWclrnO0eRWnQgi-24">
          <mxGeometry relative="1" as="geometry">
            <mxPoint x="780" y="70.00000000000023" as="targetPoint" />
          </mxGeometry>
        </mxCell>
        <mxCell id="sfTDWbWclrnO0eRWnQgi-19" value="&lt;h2&gt;USER&lt;/h2&gt;" style="rhombus;whiteSpace=wrap;html=1;fillColor=#ffe6cc;strokeColor=#d79b00;" vertex="1" parent="1">
          <mxGeometry x="650" y="120" width="105" height="100" as="geometry" />
        </mxCell>
        <mxCell id="sfTDWbWclrnO0eRWnQgi-21" value="DETAIL" style="ellipse;whiteSpace=wrap;html=1;fillColor=#fff2cc;strokeColor=#d6b656;" vertex="1" parent="1">
          <mxGeometry y="-40" width="120" height="80" as="geometry" />
        </mxCell>
        <mxCell id="sfTDWbWclrnO0eRWnQgi-22" value="INFO" style="ellipse;whiteSpace=wrap;html=1;fillColor=#fff2cc;strokeColor=#d6b656;" vertex="1" parent="1">
          <mxGeometry x="160" y="-40" width="120" height="80" as="geometry" />
        </mxCell>
        <mxCell id="sfTDWbWclrnO0eRWnQgi-23" value="INVENTARY" style="ellipse;whiteSpace=wrap;html=1;fillColor=#fff2cc;strokeColor=#d6b656;" vertex="1" parent="1">
          <mxGeometry x="240" y="50" width="120" height="80" as="geometry" />
        </mxCell>
        <mxCell id="sfTDWbWclrnO0eRWnQgi-24" value="PROFILE" style="ellipse;whiteSpace=wrap;html=1;fillColor=#fff2cc;strokeColor=#d6b656;" vertex="1" parent="1">
          <mxGeometry x="720" y="-50" width="120" height="80" as="geometry" />
        </mxCell>
        <mxCell id="sfTDWbWclrnO0eRWnQgi-25" value="ADMIN" style="ellipse;whiteSpace=wrap;html=1;fillColor=#fff2cc;strokeColor=#d6b656;" vertex="1" parent="1">
          <mxGeometry x="530" y="-50" width="120" height="80" as="geometry" />
        </mxCell>
        <mxCell id="sfTDWbWclrnO0eRWnQgi-26" value="AUTHORITY" style="ellipse;whiteSpace=wrap;html=1;fillColor=#fff2cc;strokeColor=#d6b656;" vertex="1" parent="1">
          <mxGeometry x="480" y="90" width="120" height="80" as="geometry" />
        </mxCell>
        <mxCell id="sfTDWbWclrnO0eRWnQgi-30" style="edgeStyle=orthogonalEdgeStyle;rounded=0;orthogonalLoop=1;jettySize=auto;html=1;exitX=0.5;exitY=1;exitDx=0;exitDy=0;entryX=0.298;entryY=0;entryDx=0;entryDy=0;entryPerimeter=0;" edge="1" parent="1" source="sfTDWbWclrnO0eRWnQgi-7" target="sfTDWbWclrnO0eRWnQgi-17">
          <mxGeometry relative="1" as="geometry" />
        </mxCell>
        <mxCell id="sfTDWbWclrnO0eRWnQgi-38" style="edgeStyle=orthogonalEdgeStyle;rounded=0;orthogonalLoop=1;jettySize=auto;html=1;exitX=1;exitY=0;exitDx=0;exitDy=0;entryX=0.226;entryY=0.961;entryDx=0;entryDy=0;entryPerimeter=0;" edge="1" parent="1" source="sfTDWbWclrnO0eRWnQgi-18" target="sfTDWbWclrnO0eRWnQgi-22">
          <mxGeometry relative="1" as="geometry" />
        </mxCell>
        <mxCell id="sfTDWbWclrnO0eRWnQgi-39" style="edgeStyle=orthogonalEdgeStyle;rounded=0;orthogonalLoop=1;jettySize=auto;html=1;exitX=1;exitY=0.5;exitDx=0;exitDy=0;entryX=0;entryY=0.75;entryDx=0;entryDy=0;entryPerimeter=0;" edge="1" parent="1" source="sfTDWbWclrnO0eRWnQgi-18" target="sfTDWbWclrnO0eRWnQgi-23">
          <mxGeometry relative="1" as="geometry" />
        </mxCell>
        <mxCell id="sfTDWbWclrnO0eRWnQgi-43" style="edgeStyle=orthogonalEdgeStyle;rounded=0;orthogonalLoop=1;jettySize=auto;html=1;exitX=0;exitY=0.5;exitDx=0;exitDy=0;entryX=0.943;entryY=0.743;entryDx=0;entryDy=0;entryPerimeter=0;" edge="1" parent="1" source="sfTDWbWclrnO0eRWnQgi-19" target="sfTDWbWclrnO0eRWnQgi-26">
          <mxGeometry relative="1" as="geometry" />
        </mxCell>
        <mxCell id="sfTDWbWclrnO0eRWnQgi-47" style="edgeStyle=orthogonalEdgeStyle;rounded=0;orthogonalLoop=1;jettySize=auto;html=1;entryX=0.5;entryY=1;entryDx=0;entryDy=0;" edge="1" parent="1" target="sfTDWbWclrnO0eRWnQgi-18">
          <mxGeometry relative="1" as="geometry">
            <mxPoint x="300" y="240" as="sourcePoint" />
          </mxGeometry>
        </mxCell>
        <mxCell id="sfTDWbWclrnO0eRWnQgi-48" style="edgeStyle=orthogonalEdgeStyle;rounded=0;orthogonalLoop=1;jettySize=auto;html=1;exitX=0;exitY=1;exitDx=0;exitDy=0;entryX=0.5;entryY=0;entryDx=0;entryDy=0;" edge="1" parent="1" source="sfTDWbWclrnO0eRWnQgi-44" target="sfTDWbWclrnO0eRWnQgi-6">
          <mxGeometry relative="1" as="geometry">
            <Array as="points">
              <mxPoint x="120" y="370" />
            </Array>
          </mxGeometry>
        </mxCell>
        <mxCell id="sfTDWbWclrnO0eRWnQgi-51" style="edgeStyle=orthogonalEdgeStyle;rounded=0;orthogonalLoop=1;jettySize=auto;html=1;entryX=0.5;entryY=1;entryDx=0;entryDy=0;" edge="1" parent="1" target="sfTDWbWclrnO0eRWnQgi-19">
          <mxGeometry relative="1" as="geometry">
            <mxPoint x="500" y="240" as="sourcePoint" />
          </mxGeometry>
        </mxCell>
        <mxCell id="sfTDWbWclrnO0eRWnQgi-52" style="edgeStyle=orthogonalEdgeStyle;rounded=0;orthogonalLoop=1;jettySize=auto;html=1;" edge="1" parent="1">
          <mxGeometry relative="1" as="geometry">
            <mxPoint x="730" y="380" as="targetPoint" />
            <mxPoint x="500" y="370" as="sourcePoint" />
            <Array as="points">
              <mxPoint x="500" y="360" />
              <mxPoint x="730" y="360" />
            </Array>
          </mxGeometry>
        </mxCell>
        <mxCell id="sfTDWbWclrnO0eRWnQgi-44" value="&lt;h1&gt;ECOMMERCE&lt;/h1&gt;" style="rounded=0;whiteSpace=wrap;html=1;fillColor=#f8cecc;strokeColor=#b85450;" vertex="1" parent="1">
          <mxGeometry x="300" y="240" width="200" height="130" as="geometry" />
        </mxCell>
      </root>
    </mxGraphModel>
  </diagram>
</mxfile>
